<svg width="20" height="20" viewBox="0 0 20 20" fill="none" xmlns="http://www.w3.org/2000/svg">
<path d="M10 0.400024C8.53178 0.401379 7.08344 0.73948 5.76637 1.38832C4.44931 2.03716 3.29861 2.97946 2.4028 4.14272C1.50699 5.30599 0.889933 6.65922 0.599092 8.09835C0.308251 9.53747 0.351378 11.0241 0.725154 12.444C1.09893 13.8638 1.79339 15.179 2.75513 16.2884C3.71687 17.3978 4.92025 18.2718 6.27272 18.8432C7.62518 19.4146 9.09069 19.6681 10.5565 19.5844C12.0223 19.5006 13.4494 19.0818 14.728 18.36C14.8194 18.3075 14.8996 18.2375 14.9639 18.154C15.0282 18.0705 15.0755 17.9751 15.103 17.8733C15.1305 17.7716 15.1376 17.6654 15.1241 17.5608C15.1105 17.4563 15.0765 17.3554 15.024 17.264C14.9715 17.1726 14.9015 17.0925 14.8179 17.0281C14.7344 16.9638 14.6391 16.9165 14.5373 16.889C14.4355 16.8615 14.3293 16.8544 14.2248 16.8679C14.1203 16.8815 14.0194 16.9155 13.928 16.968C12.3969 17.831 10.6242 18.1657 8.88377 17.9205C7.14338 17.6753 5.53218 16.8637 4.29913 15.6112C3.06608 14.3588 2.2798 12.7351 2.06179 10.9911C1.84377 9.24709 2.20615 7.47982 3.09293 5.96236C3.97972 4.44489 5.34155 3.26169 6.96801 2.59557C8.59447 1.92945 10.395 1.81749 12.0915 2.27698C13.7879 2.73648 15.2859 3.74185 16.3538 5.13777C17.4218 6.53368 18.0003 8.24244 18 10V11.6C18 12.0244 17.8314 12.4313 17.5314 12.7314C17.2313 13.0315 16.8243 13.2 16.4 13.2C15.9757 13.2 15.5687 13.0315 15.2686 12.7314C14.9686 12.4313 14.8 12.0244 14.8 11.6V5.20002H13.2V6.43202C12.4915 5.79442 11.6092 5.38218 10.6656 5.24784C9.72197 5.1135 8.75971 5.26314 7.90143 5.67768C7.04315 6.09223 6.32773 6.75292 5.84631 7.57555C5.3649 8.39819 5.1393 9.34553 5.19826 10.2969C5.25722 11.2482 5.59808 12.1604 6.17739 12.9173C6.7567 13.6742 7.54823 14.2415 8.45113 14.5469C9.35403 14.8523 10.3274 14.8819 11.2472 14.6321C12.1671 14.3823 12.9917 13.8642 13.616 13.144C13.9629 13.7564 14.5021 14.2372 15.1499 14.5122C15.7978 14.7872 16.5182 14.8409 17.1997 14.6651C17.8811 14.4893 18.4856 14.0937 18.9196 13.5396C19.3535 12.9855 19.5926 12.3038 19.6 11.6V10C19.6 7.45395 18.5886 5.01215 16.7882 3.2118C14.9879 1.41145 12.5461 0.400024 10 0.400024ZM10 13.2C9.3671 13.2 8.74841 13.0123 8.22218 12.6607C7.69594 12.3091 7.28579 11.8093 7.04359 11.2246C6.80138 10.6399 6.73801 9.99648 6.86149 9.37574C6.98496 8.755 7.28973 8.18481 7.73726 7.73728C8.18479 7.28975 8.75497 6.98498 9.37571 6.86151C9.99645 6.73804 10.6399 6.80141 11.2246 7.04361C11.8093 7.28581 12.3091 7.69596 12.6607 8.2222C13.0123 8.74844 13.2 9.36712 13.2 10C13.2 10.8487 12.8629 11.6626 12.2627 12.2628C11.6626 12.8629 10.8487 13.2 10 13.2Z" fill="black"/>
</svg>
