<svg width="16" height="20" viewBox="0 0 16 20" fill="none" xmlns="http://www.w3.org/2000/svg">
<path d="M15.2 6.00002H12.8V5.20002C12.8 3.92699 12.2943 2.70609 11.3941 1.80591C10.4939 0.905737 9.27304 0.400024 8 0.400024C6.72696 0.400024 5.50606 0.905737 4.60589 1.80591C3.70571 2.70609 3.2 3.92699 3.2 5.20002V6.00002H0.8C0.587827 6.00002 0.384344 6.08431 0.234315 6.23434C0.0842856 6.38437 0 6.58785 0 6.80002V18.8C0 19.0122 0.0842856 19.2157 0.234315 19.3657C0.384344 19.5157 0.587827 19.6 0.8 19.6H15.2C15.4122 19.6 15.6157 19.5157 15.7657 19.3657C15.9157 19.2157 16 19.0122 16 18.8V6.80002C16 6.58785 15.9157 6.38437 15.7657 6.23434C15.6157 6.08431 15.4122 6.00002 15.2 6.00002ZM4.8 5.20002C4.8 4.35133 5.13714 3.5374 5.73726 2.93728C6.33737 2.33717 7.15131 2.00002 8 2.00002C8.84869 2.00002 9.66263 2.33717 10.2627 2.93728C10.8629 3.5374 11.2 4.35133 11.2 5.20002V6.00002H4.8V5.20002ZM14.4 18H1.6V7.60002H14.4V18Z" fill="black"/>
</svg>
