<svg width="20" height="28" viewBox="0 0 20 28" fill="none" xmlns="http://www.w3.org/2000/svg">
<path d="M19 0H1C0.88683 0.00447726 0.775242 0.0281474 0.67 0.0700001H0.59H0.52C0.443236 0.113818 0.372621 0.16762 0.31 0.23C0.231221 0.311863 0.166968 0.406551 0.12 0.51V0.59C0.050934 0.716428 0.0100002 0.856285 0 1V21C3.02676e-05 21.1735 0.0452234 21.3441 0.131136 21.4949C0.217048 21.6457 0.340723 21.7715 0.49 21.86L10.49 27.86C10.6418 27.95 10.8148 27.9982 10.9913 27.9998C11.1678 28.0013 11.3415 27.9561 11.4949 27.8688C11.6483 27.7814 11.7758 27.655 11.8645 27.5024C11.9532 27.3499 12 27.1765 12 27V22H19C19.2652 22 19.5196 21.8946 19.7071 21.7071C19.8946 21.5196 20 21.2652 20 21V1C20 0.734784 19.8946 0.48043 19.7071 0.292893C19.5196 0.105357 19.2652 0 19 0ZM10 25.23L2 20.43V2.77L10 7.57V25.23ZM18 20H12V7C12 6.82646 11.9548 6.65591 11.8689 6.50512C11.783 6.35434 11.6593 6.22851 11.51 6.14L4.61 2H18V20Z" fill="black"/>
</svg>
